<svg version="1.1" id="Layer_1" xmlns="http://www.w3.org/2000/svg" xmlns:xlink="http://www.w3.org/1999/xlink" x="0px" y="0px"
	 width="100%" viewBox="0 0 1024 1024" enable-background="new 0 0 1024 1024" xml:space="preserve">
<path fill="#000000" opacity="1.000000" stroke="none" 
	d="
M283.973297,339.021393 
	C287.634125,339.312500 289.008942,335.794495 289.881653,333.879456 
	C292.934418,327.180634 295.597168,319.748840 293.274963,312.532867 
	C292.081940,308.825745 290.998108,304.503784 287.902374,301.520294 
	C289.052094,299.587982 290.379730,299.413300 291.725189,300.592926 
	C299.421204,307.340576 307.067871,314.144501 314.808167,320.997345 
	C314.772156,322.418701 313.630646,322.614197 312.437134,322.846161 
	C307.185944,323.866608 306.034821,325.441284 307.555664,330.634430 
	C308.626038,334.289337 310.517273,337.696136 311.738495,341.316071 
	C315.268982,351.781525 314.013000,362.374542 312.254181,372.947266 
	C311.832947,375.479584 310.479279,377.636108 308.941345,379.604340 
	C303.388062,386.711151 300.587036,395.009705 300.462921,403.747437 
	C300.326385,413.357758 298.338715,422.576019 296.702057,431.903198 
	C296.000122,435.903534 295.807526,439.898438 296.912781,443.798615 
	C299.761475,453.850861 299.306152,464.617462 304.093353,474.307159 
	C306.390533,478.956909 308.449493,483.598572 311.877350,487.570404 
	C315.899414,492.230835 319.735138,497.053162 323.611450,501.837891 
	C326.409912,505.292145 330.086578,507.488770 333.952209,509.528076 
	C340.721588,513.099243 347.615601,516.503601 354.063538,520.598145 
	C363.482910,526.579590 369.776764,535.819458 376.988281,544.063354 
	C378.750488,546.077942 380.336487,548.298096 382.637421,549.659790 
	C392.593262,555.551636 401.215363,563.288452 409.688049,570.910950 
	C418.387482,578.737427 426.256683,587.586914 433.612274,596.920166 
	C442.102814,607.693542 450.272369,618.929382 461.070007,627.741943 
	C471.555420,636.299683 478.479736,648.297058 489.112518,656.786804 
	C493.370575,660.186523 498.012085,663.214111 501.524353,667.556030 
	C503.948975,670.553406 505.104736,673.751343 505.145477,677.630005 
	C505.205475,683.336792 504.075623,688.894287 503.484375,694.513245 
	C503.103302,698.134583 501.105072,701.025452 497.550720,702.811523 
	C498.953278,706.512756 502.060272,708.131409 504.916443,709.416504 
	C508.400940,710.984375 509.033844,713.239319 508.623596,716.581909 
	C507.470795,725.973450 508.651367,727.432190 518.044373,727.951477 
	C525.276306,728.351318 528.800781,734.098877 533.196411,738.401978 
	C535.951294,741.098755 538.302246,744.131348 542.114685,745.358398 
	C544.587097,746.154114 547.117371,746.538330 548.820496,743.899780 
	C550.430664,741.405212 549.719971,739.190552 547.788696,737.130981 
	C546.700623,735.970703 545.050110,735.102478 545.230835,732.739624 
	C548.847229,731.529968 552.535889,731.721680 556.251343,732.674438 
	C562.656738,734.317078 566.331604,730.654663 564.681702,724.232056 
	C563.362366,719.096191 560.256714,714.978821 556.438721,710.350952 
	C565.356140,714.013367 568.078430,708.596069 570.712036,702.293457 
	C571.593079,700.185181 574.017090,698.602783 575.978760,697.096375 
	C578.198853,695.391357 579.575500,697.160095 580.897217,698.769897 
	C584.454468,703.102539 586.407471,703.355835 589.110352,698.909485 
	C591.271667,695.354065 594.262024,693.244995 597.410767,690.780334 
	C604.751404,685.034546 612.310669,679.356506 617.081238,670.927063 
	C618.963867,667.600525 622.875366,666.576660 625.910217,664.587830 
	C634.907837,658.691406 642.679382,651.744141 647.438416,641.788391 
	C649.981506,636.468262 654.668152,632.697021 658.544800,628.390869 
	C660.597290,626.110962 663.866150,626.974854 666.655090,627.465210 
	C675.409119,629.004456 680.672913,625.333069 682.099487,616.465698 
	C682.753662,612.399292 685.017822,609.315857 688.240967,607.208801 
	C696.149963,602.038391 696.967896,593.325500 689.763306,587.202759 
	C687.221558,585.042664 686.377747,582.853210 688.412292,579.873901 
	C693.078979,573.039917 697.846802,566.381287 706.988892,565.267273 
	C709.798950,564.924744 711.012451,562.550171 712.805786,560.865112 
	C716.351990,557.532959 719.155701,553.597473 722.082397,549.765442 
	C724.671021,546.376160 725.925598,542.774658 725.585510,538.199158 
	C724.993835,530.240417 729.370605,523.100586 730.476013,515.351074 
	C730.710144,513.710022 731.029785,512.015747 731.687134,510.510620 
	C737.847412,496.405304 733.898743,482.481293 731.406006,468.397308 
	C729.322388,456.624512 725.784729,445.070801 725.727661,432.954926 
	C725.687195,424.358185 719.793335,418.373291 715.875488,411.487579 
	C706.686829,395.338196 692.304565,385.850281 675.691345,378.656372 
	C663.749878,373.485382 652.346069,367.104675 644.519653,356.049133 
	C643.560120,354.693756 642.529663,353.331482 641.880066,351.822601 
	C635.099976,336.072968 626.720459,321.025757 621.037964,304.800262 
	C617.488098,294.664062 612.169556,285.395508 606.861389,276.185638 
	C602.595581,268.784119 594.536926,265.197968 587.999084,260.114471 
	C573.842041,249.106628 556.965454,244.442139 540.155701,239.593140 
	C533.108093,237.560181 525.998230,237.654037 518.854126,238.583939 
	C514.684631,239.126663 510.588898,239.121796 506.428802,238.434097 
	C497.622406,236.978287 491.662964,232.884262 490.595551,223.235565 
	C490.275574,220.343201 489.032013,217.400497 487.610199,214.811035 
	C483.272919,206.911728 488.277771,197.861603 497.306488,197.686340 
	C500.970612,197.615219 504.640259,197.761703 508.301666,197.638840 
	C511.480865,197.532181 513.625854,196.295380 513.766724,192.575226 
	C513.872559,189.781296 514.850708,187.064407 514.705566,184.188034 
	C514.608398,182.262375 514.261108,179.811691 516.762634,179.114487 
	C519.136108,178.453003 521.859375,178.027145 523.761780,180.233810 
	C527.381348,184.432175 531.181702,188.735947 533.009155,193.917526 
	C534.113159,197.048004 535.553833,197.782578 538.800476,198.243301 
	C542.769653,201.329285 551.521790,201.619614 555.361206,198.897217 
	C549.811157,197.023346 544.370728,198.509827 539.096497,197.914688 
	C535.336304,192.225204 531.606018,186.515579 527.803345,180.854645 
	C525.870483,177.977310 515.548401,175.865097 512.652039,177.633255 
	C511.250092,178.489090 511.395111,179.872025 511.344208,181.173279 
	C511.194458,185.001999 511.120819,188.833740 510.962830,192.662064 
	C510.840912,195.617584 509.110199,196.981598 506.332733,196.443527 
	C495.906433,194.423691 494.389008,194.921646 494.813171,184.396271 
	C495.510406,167.095093 496.100708,149.789581 496.718872,132.485291 
	C496.879669,127.983963 499.101776,125.713905 503.665527,125.974266 
	C513.965454,126.561882 524.364502,126.494339 534.532410,127.990372 
	C543.653320,129.332352 552.163391,133.402191 554.940857,143.277328 
	C557.598083,152.724976 557.298462,162.205368 549.714233,169.836182 
	C547.753784,171.808670 545.226379,173.217667 542.468201,175.246918 
	C545.458069,182.285919 550.643311,188.128479 554.615845,195.083237 
	C555.715271,191.551849 554.095398,187.447006 550.678284,184.256531 
	C545.624207,179.537735 545.342651,178.456406 550.211853,173.548584 
	C553.573975,170.159882 554.450989,165.597443 556.746582,162.101135 
	C559.572083,157.797836 559.799927,153.906525 559.659729,149.547607 
	C559.358398,140.179489 548.517151,130.216156 539.896362,126.947983 
	C526.397400,121.830429 512.688416,126.203133 498.407928,123.260277 
	C504.955994,122.212677 508.700195,118.657295 511.397766,113.504227 
	C512.551880,111.299591 515.416016,110.723114 517.881653,110.115616 
	C520.627502,109.439102 523.379150,108.759651 526.075134,107.912605 
	C532.434875,105.914513 537.816650,102.819359 541.171692,96.534157 
	C544.163696,90.929077 548.678589,86.365852 553.481262,82.198143 
	C557.579834,78.641434 559.692627,74.147301 560.743286,68.888237 
	C563.145203,56.865410 569.231384,51.943047 580.883911,51.835049 
	C604.934753,51.612141 628.813660,52.646984 652.476868,57.319584 
	C658.028442,58.415817 662.836365,60.778393 667.555420,63.651520 
	C683.629395,73.437943 699.631348,83.352791 713.400208,96.329918 
	C725.778198,107.996208 737.881836,119.870605 744.217590,136.321045 
	C747.242676,144.175552 752.410400,150.682281 759.021423,156.104446 
	C764.808167,160.850586 770.336365,165.942215 775.698242,171.168930 
	C783.471863,178.746582 792.195435,184.851410 802.725342,187.554794 
	C815.065308,190.722916 823.573730,198.430679 829.825134,208.910736 
	C837.316772,221.470016 845.608337,233.564224 851.190125,247.242889 
	C857.430725,262.536163 863.225586,277.939941 866.453918,294.177490 
	C867.600769,299.945679 867.625061,305.780121 865.371216,311.408020 
	C864.355652,313.943817 864.544067,316.544098 864.608582,319.247498 
	C865.020630,336.516174 866.519348,353.765411 862.009338,370.910858 
	C859.394714,380.850830 862.985046,390.837097 865.858276,400.292633 
	C868.814026,410.019440 870.473877,419.645508 870.041565,429.764282 
	C869.707153,437.591095 870.312927,445.364899 871.610352,453.146820 
	C873.084412,461.988312 872.011841,470.847076 868.840393,479.221344 
	C861.900696,497.545715 857.540710,516.280884 855.554932,535.891052 
	C854.546570,545.849792 848.393616,555.051819 841.433533,562.811951 
	C838.885620,565.652893 835.061340,566.307068 831.256104,566.054443 
	C828.480408,565.870117 826.020020,566.512512 823.743591,568.166077 
	C820.251221,570.702881 818.393066,573.571594 820.819031,577.911743 
	C821.518127,579.162476 822.284973,580.573364 821.703369,582.480774 
	C819.085938,582.167908 816.210205,582.879883 814.549500,579.627441 
	C814.202576,578.948120 812.783264,578.319092 811.985962,578.449280 
	C807.416565,579.195618 804.512085,575.522888 800.681946,574.297424 
	C794.463379,572.307678 789.173218,567.940002 782.733582,566.330139 
	C780.264038,565.712891 779.054016,563.540283 776.833374,562.434875 
	C770.104980,559.085510 762.369141,558.117126 756.274597,553.234802 
	C752.964111,550.582764 750.055603,552.745667 748.016235,556.289185 
	C746.031250,559.738220 746.168213,564.024780 743.057373,566.983582 
	C741.770142,568.207886 741.611633,571.262268 743.919617,571.351685 
	C748.299927,571.521240 750.749329,575.121094 754.400757,576.578430 
	C760.061157,578.837708 765.827209,581.562256 771.449341,584.256653 
	C780.569275,588.627502 789.987854,592.357910 798.832458,597.343994 
	C800.420898,598.239502 802.684326,597.937683 804.839478,598.214722 
	C804.428223,601.114807 802.140137,601.092041 800.392395,601.608032 
	C795.278198,603.117920 793.526184,605.917358 796.884949,609.675964 
	C803.938782,617.569519 805.936096,629.043518 815.564941,635.062683 
	C819.207397,637.339722 820.523315,641.295959 821.439453,645.630920 
	C823.117798,653.571777 825.519775,661.371643 827.877686,669.152222 
	C829.188110,673.476318 829.581421,677.641052 827.638306,681.805542 
	C822.650513,692.495605 818.183960,703.419067 809.693481,712.138000 
	C804.761047,717.203125 804.054260,724.895386 799.737793,730.496826 
	C789.359314,743.964844 781.973755,759.450684 771.750854,772.933289 
	C764.935791,781.921570 755.749023,789.329346 744.866028,793.003845 
	C728.614441,798.491028 711.968079,802.706482 694.588440,803.074341 
	C688.597534,803.201111 682.689270,804.344543 676.995789,806.450989 
	C671.947876,808.318604 666.671570,809.057007 661.288025,808.878784 
	C658.212341,808.777039 655.058105,808.269165 653.188049,805.656067 
	C646.690002,796.575928 637.486877,797.606812 628.331665,798.881470 
	C619.117126,800.164246 610.489929,804.300537 600.974792,804.423340 
	C594.491699,804.507019 588.202271,804.096436 582.963989,799.927979 
	C577.457642,795.546204 571.750916,795.413147 565.645691,798.152161 
	C561.524353,800.001038 557.517578,800.384521 553.091492,798.687317 
	C548.034119,796.748169 545.148010,793.773376 544.768188,788.160034 
	C544.569702,785.227600 543.380310,782.343140 542.498047,779.480347 
	C540.968872,774.519104 538.131470,771.340576 532.334961,771.989563 
	C528.712402,772.395081 525.904114,770.676086 523.700745,767.886047 
	C523.494202,767.624512 523.298340,767.354492 523.088440,767.095764 
	C515.570801,757.831116 514.517090,757.895142 509.202728,768.397766 
	C508.947754,765.046204 508.993958,762.075684 505.819214,760.258362 
	C504.387848,759.439026 504.888702,757.209290 504.766754,755.560059 
	C504.247345,748.535706 505.513397,741.501343 502.333466,734.506287 
	C500.703125,730.919983 501.865845,725.971008 502.089508,721.654663 
	C502.526337,713.224121 498.142242,709.473511 490.458344,710.164490 
	C488.638214,710.328125 486.794556,710.262573 484.962067,710.250305 
	C476.638977,710.194580 475.303864,711.228699 473.195435,719.268066 
	C472.394623,722.321533 469.191101,724.548096 470.051941,728.601562 
	C470.003937,729.002747 470.031158,728.966980 469.661316,729.040405 
	C468.177521,729.343689 466.654114,729.302124 466.530121,730.733704 
	C466.084503,735.878784 461.521545,737.920227 459.049622,741.741821 
	C457.193726,739.731323 458.002014,737.637512 457.676697,735.766724 
	C457.075989,732.312317 457.671265,728.393982 454.023499,726.020142 
	C453.996002,725.977356 453.944824,725.889465 453.944824,725.889465 
	C453.855560,719.726746 453.692383,713.563843 453.712097,707.401489 
	C453.720428,704.801147 452.940796,703.679810 450.113434,703.224182 
	C445.158783,702.425903 440.750305,699.505737 435.291626,700.128723 
	C431.969391,700.507812 429.512054,702.229980 428.737427,704.526367 
	C426.810516,710.238831 421.875488,714.166077 420.111572,719.670105 
	C417.612885,727.466797 412.715851,733.928833 408.876953,740.898621 
	C406.210358,745.740051 403.737915,750.856506 400.547791,755.538208 
	C398.455200,758.609253 395.491333,762.088074 396.263123,766.639404 
	C396.492859,767.994080 396.613708,769.200500 397.954865,770.013184 
	C401.289948,772.033936 414.876465,771.028687 416.712616,767.778015 
	C419.401031,763.018433 423.311951,759.092896 425.161346,753.635437 
	C426.183624,750.618835 427.467957,747.112915 430.237976,744.492615 
	C432.458618,742.391968 432.788208,738.746216 434.691986,736.102417 
	C435.507935,734.969299 436.316193,734.197144 437.589111,733.672607 
	C438.507874,735.788391 438.459412,737.987366 438.245300,740.094543 
	C437.260895,749.781372 440.677185,759.067749 440.636627,768.727905 
	C440.610138,775.052551 447.410767,780.420654 453.905518,780.734131 
	C456.813995,780.874573 459.734863,780.757935 462.508026,780.757935 
	C463.414185,785.666931 457.944183,784.210876 457.547272,787.231628 
	C457.995056,789.692261 460.975311,789.172424 461.910400,791.089722 
	C461.930695,791.348145 462.101654,791.767761 461.960663,791.982727 
	C456.477600,800.341125 456.458893,800.366882 465.432983,805.121643 
	C469.112122,807.070984 472.803070,809.024719 476.610626,810.699036 
	C482.289856,813.196472 486.977539,816.258057 488.701935,822.916260 
	C489.828735,827.266968 494.361298,828.145447 498.130219,829.495178 
	C500.214569,830.241638 502.878296,829.958191 504.106781,832.771240 
	C502.378021,835.556030 499.467163,835.703430 496.708252,835.895996 
	C482.870514,836.862305 469.278442,834.576538 456.354675,830.267883 
	C446.271454,826.906250 436.226410,826.745911 425.962463,825.798462 
	C410.210663,824.344543 393.885376,824.974915 379.352753,816.757446 
	C369.635895,811.263123 361.808655,803.618713 354.367615,795.483154 
	C353.252991,794.264526 352.226074,792.607666 350.812592,792.079346 
	C342.576660,789.000854 335.160034,783.409241 326.286682,782.495178 
	C309.541412,780.769958 295.067322,773.617432 280.863434,765.356140 
	C275.685974,762.344788 271.851135,758.565430 268.674835,753.360962 
	C262.186340,742.729614 255.256958,732.336304 247.161301,722.781555 
	C243.431564,718.379639 240.846161,713.252441 241.151108,707.291077 
	C241.525269,699.976501 238.799744,694.862000 233.449554,689.472595 
	C220.744415,676.674438 207.486343,664.209473 197.738907,648.748840 
	C196.235062,646.363586 194.273590,644.271484 192.686584,641.933289 
	C189.414825,637.112793 188.145874,631.918945 190.489197,626.318359 
	C192.072128,622.535095 191.681839,618.975098 190.282852,615.189636 
	C187.356155,607.270386 186.404800,598.983704 187.023514,590.593140 
	C187.365067,585.961304 185.858475,582.703735 182.062332,579.958801 
	C175.598495,575.284851 173.324600,563.552673 177.124908,556.375854 
	C177.280594,556.081909 177.376755,555.621277 177.615372,555.526062 
	C185.585831,552.348633 187.335541,542.695068 195.128082,539.072815 
	C202.528687,535.632751 201.778702,528.114441 201.763367,521.574463 
	C201.755554,518.234863 201.188980,515.173828 203.059570,512.004395 
	C204.310196,509.885406 204.512054,506.221619 202.842026,504.926605 
	C197.667160,500.913696 198.238815,496.429718 200.628113,491.556641 
	C202.011887,493.753174 199.151871,498.886627 204.839890,498.810455 
	C208.165634,498.765930 211.570221,499.023804 213.903503,495.830414 
	C215.050125,494.261139 217.105225,495.147583 218.521225,494.425598 
	C223.383102,491.946533 227.984528,488.855347 233.028824,486.870789 
	C236.428955,485.533081 239.133942,482.515930 243.122452,482.629089 
	C245.065536,482.684204 245.676086,481.398041 245.919830,479.367828 
	C246.000000,479.000000 245.996826,479.001221 245.996826,479.001221 
	C253.501572,479.887512 258.673065,475.541687 258.674286,468.344421 
	C258.674622,466.344940 258.567322,464.340027 258.678772,462.347076 
	C258.942322,457.635376 258.750061,454.433594 252.184738,453.790558 
	C249.196320,453.497803 245.377777,450.734161 241.736221,449.363464 
	C237.140717,447.633728 232.730438,445.467010 227.918671,444.238007 
	C224.786102,443.437927 222.381592,440.978577 219.076050,440.151459 
	C216.238693,439.441437 213.620575,437.967621 210.526779,438.272827 
	C209.047195,438.418793 208.264450,437.497742 207.496445,436.196655 
	C205.770493,433.272552 202.773071,434.060669 200.291992,434.597046 
	C197.721420,435.152771 198.244415,437.692780 198.219009,439.621979 
	C198.157883,444.265808 198.199203,448.911041 198.199203,454.010284 
	C189.711578,448.707214 194.587891,440.130371 192.019455,433.746185 
	C196.637787,431.458649 200.105728,422.053619 198.035095,417.485870 
	C194.975250,410.736023 195.245987,404.953918 201.797760,400.445099 
	C203.021469,399.602936 203.065384,398.429596 202.396774,397.380676 
	C197.517502,389.726379 203.521805,385.054047 207.271271,379.875183 
	C208.398788,378.317841 210.284882,377.289886 211.880005,376.094910 
	C215.558655,373.338989 215.552536,370.985962 211.587891,368.484558 
	C207.655106,366.003204 203.584396,363.740417 199.184296,361.152466 
	C203.038208,360.453949 206.165024,360.890900 209.008560,363.172333 
	C210.317688,364.222687 211.979889,364.477386 213.659653,364.770203 
	C221.852036,366.198242 229.649307,368.810303 236.895767,372.969238 
	C237.584320,373.364471 238.528946,373.800537 239.215134,373.635895 
	C244.763367,372.304749 248.796082,377.829468 254.249512,376.901855 
	C254.711121,376.823334 255.436172,377.440948 255.823532,377.912140 
	C259.236328,382.063324 263.326416,381.125580 267.759918,379.274139 
	C268.000092,378.999603 267.989227,379.009888 267.989227,379.009888 
	C270.784912,377.131104 274.486267,367.407257 273.476776,364.376129 
	C273.230927,363.637878 272.651337,362.484711 272.146729,362.441650 
	C267.958954,362.084290 265.181732,358.135284 261.522278,357.679840 
	C256.814514,357.093933 253.318970,354.127869 249.005157,352.586975 
	C249.160812,351.925446 249.294205,351.791473 249.427582,351.657501 
	C256.545410,352.122223 263.602997,351.337769 270.664062,350.630859 
	C274.432983,350.253571 283.499359,342.770294 284.031555,339.287903 
	C283.999054,338.996521 283.973297,339.021393 283.973297,339.021393 
M249.052917,514.991943 
	C249.052917,514.991943 248.737839,514.679504 248.665497,514.033997 
	C248.206406,513.158081 247.973419,511.947510 247.251907,511.459991 
	C242.216202,508.057953 243.811142,504.605499 246.665085,500.680298 
	C249.994766,496.100800 250.646530,496.066833 255.076248,499.903473 
	C260.400574,504.515015 262.185883,511.022308 265.078094,517.931458 
	C265.144135,521.595947 265.470825,525.277588 265.230988,528.921936 
	C264.205688,544.503845 250.754257,554.412720 236.728195,554.010498 
	C225.263016,553.681641 216.517349,547.401367 212.128082,536.450073 
	C205.863770,520.820496 210.554230,506.297943 225.519424,499.534729 
	C234.461792,495.493408 234.586838,495.779419 237.422745,504.990936 
	C237.484009,505.190002 237.910706,505.276550 238.168243,505.413147 
	C240.337143,498.631042 236.756912,493.765015 228.471069,495.536255 
	C223.233047,496.656006 218.333679,499.628174 215.067566,503.494141 
	C206.574997,513.546387 204.193130,524.889465 209.898422,537.572510 
	C215.162872,549.275635 223.618912,555.554810 236.510696,555.758911 
	C238.236008,555.786255 240.444412,555.476501 240.036606,558.241577 
	C232.613998,561.798218 226.655945,566.196716 222.441010,573.642395 
	C220.318848,577.391235 221.251816,581.314209 219.103775,584.723755 
	C216.234070,589.278809 216.604172,594.231323 218.802902,599.034973 
	C219.354080,600.239136 220.596344,601.603638 219.479568,602.668823 
	C216.860962,605.166565 218.892700,606.968994 220.196930,608.676147 
	C224.964981,614.917236 228.158066,621.962952 231.121658,629.152039 
	C233.029800,633.780884 235.704681,637.891968 239.442596,641.291687 
	C241.153870,642.848083 242.936478,643.113831 244.900986,641.984558 
	C250.599045,638.708984 256.283203,635.409119 261.960785,632.098145 
	C263.049988,631.462952 262.310211,630.685852 261.985870,629.996155 
	C261.985870,629.996155 261.944305,630.021545 262.786255,629.929260 
	C265.133453,629.550598 267.226990,629.388916 269.523743,627.736450 
	C271.738159,626.143188 274.160370,623.632568 276.330872,623.104980 
	C285.410919,620.897583 292.663330,615.549866 300.350128,610.878845 
	C304.357605,608.443665 305.374573,602.145752 301.650696,599.542236 
	C299.088348,597.750854 298.107635,594.957336 297.155975,592.857300 
	C292.852875,583.361877 288.719025,573.939331 281.078308,566.479370 
	C275.580322,561.111511 269.979736,556.191833 261.654785,556.331970 
	C257.399048,556.403687 253.162003,553.813660 248.864731,556.251587 
	C248.574280,556.416443 247.962952,556.015564 247.295349,555.816467 
	C248.113907,554.320984 248.560440,552.951965 250.580582,552.565430 
	C257.429230,551.255249 263.889313,544.073730 264.685211,537.092285 
	C264.861694,535.544373 265.350647,534.554932 266.705933,533.461792 
	C270.510559,530.393005 269.242889,519.818420 264.821198,516.148560 
	C265.865051,511.771484 262.754974,508.560303 261.655426,504.783325 
	C260.304138,500.141724 256.690643,497.538727 252.782532,495.641235 
	C250.962952,494.757751 247.132965,494.290619 246.352722,496.395142 
	C243.795654,503.292328 236.102600,508.879517 240.567749,517.790771 
	C241.722992,520.096313 241.690872,522.966980 242.566406,525.450256 
	C243.621658,528.443298 243.623383,531.918091 246.039139,534.406616 
	C252.126923,530.206482 253.216202,523.537292 249.052917,514.991943 
M777.344666,549.379822 
	C781.047668,539.429016 783.429382,529.120850 786.154541,518.789917 
	C783.740845,517.880737 782.118652,518.685242 780.520569,519.574402 
	C775.153137,522.560913 770.820251,530.952393 772.805054,537.159973 
	C774.606934,542.795410 772.902222,544.949158 768.043945,547.414368 
	C763.674377,549.631531 762.169189,548.419739 760.704590,544.599243 
	C757.631226,536.582581 759.097168,528.815186 761.928650,521.182068 
	C767.336731,506.603363 781.484924,499.084229 795.932251,502.783813 
	C797.896118,503.286713 799.539490,505.463348 801.849609,504.241180 
	C802.247009,503.414917 802.051025,502.743652 801.504883,502.344269 
	C799.627258,500.971039 776.472229,500.599213 775.000183,502.178284 
	C770.953857,506.518524 763.819519,507.757324 762.451294,514.795166 
	C761.735718,518.475769 758.029846,521.125854 757.621094,524.448730 
	C756.813660,531.011841 757.110779,537.767639 757.535095,544.406433 
	C757.848022,549.301514 760.912537,550.701965 765.897461,550.208130 
	C770.006042,549.801147 773.181946,547.571289 776.759277,545.771240 
	C776.995850,546.591309 777.243896,547.058472 777.239868,547.523438 
	C777.232788,548.343323 777.071960,549.161804 776.280029,550.225281 
	C774.380127,550.572693 773.631165,551.703857 773.305969,553.633179 
	C772.448669,558.718323 776.176208,558.668884 779.360046,560.546692 
	C787.769592,565.506592 794.671204,561.358948 801.982971,558.557617 
	C802.202209,558.473572 802.160095,557.707336 802.396301,556.380127 
	C796.606140,559.082947 790.975708,559.768555 785.179688,559.301392 
	C778.050842,558.726807 776.581726,557.109497 777.344666,549.379822 
M748.173218,271.661774 
	C750.876160,276.082977 753.370667,275.465851 757.499390,269.076233 
	C754.115295,269.537567 751.922119,275.350311 747.591248,270.462738 
	C745.983154,267.969116 744.530457,265.332489 741.802979,263.938507 
	C741.345947,264.130768 740.990234,264.193909 740.749268,264.394653 
	C736.911926,267.591248 733.065918,270.778046 729.268188,274.021271 
	C721.084717,281.009888 721.114685,283.166534 729.369995,289.563416 
	C729.588440,289.732727 729.606750,290.160522 729.835876,290.791107 
	C728.617310,293.079987 727.316467,295.581604 725.958557,298.051819 
	C725.161072,299.502625 724.115173,300.112885 722.268433,299.660645 
	C709.805298,296.608521 703.790771,277.429108 712.416077,268.052155 
	C717.279480,262.764954 722.893555,258.302124 728.305603,253.619537 
	C729.750305,252.369629 731.559814,250.928299 729.786377,249.129715 
	C725.750977,245.037262 728.088745,242.558395 731.464294,239.948212 
	C732.419128,239.209885 733.720215,238.440109 733.655151,236.761230 
	C731.752930,235.473679 727.326782,239.945358 727.665710,233.619156 
	C726.036987,241.466400 724.936035,242.173264 717.807129,240.306671 
	C716.840210,240.053513 715.889648,239.697098 714.907349,239.551575 
	C712.189209,239.148880 711.124329,237.747787 710.819275,234.896072 
	C710.087769,228.056442 704.707642,223.105057 697.935181,222.447815 
	C691.936340,221.865631 686.258118,226.172409 683.995361,233.932312 
	C684.028992,236.700653 684.062561,239.468979 684.244507,242.896362 
	C686.076721,248.103134 690.068298,251.150940 695.248230,250.527084 
	C701.042480,249.829269 703.022461,252.529053 704.822510,257.139130 
	C707.132019,263.054138 706.543274,264.471039 700.175537,265.224609 
	C688.186951,266.643341 676.628235,259.721405 670.497314,247.451782 
	C665.038513,236.527283 666.791260,224.963394 675.249939,216.095871 
	C683.368469,207.584946 694.942810,205.467590 705.933472,210.081131 
	C715.247925,213.991028 721.437256,220.803391 725.512451,230.623077 
	C726.415588,219.986984 712.918213,210.554306 703.610657,206.785599 
	C690.183105,201.348679 681.816101,209.107513 671.959839,213.955093 
	C670.072571,208.896606 674.328003,205.667267 674.708069,201.399185 
	C675.887817,188.153397 669.150513,180.762527 658.576965,174.971283 
	C655.297974,173.175385 651.563721,173.278107 648.750427,171.347733 
	C644.415649,168.373398 639.783997,168.132568 634.964172,168.432861 
	C632.580017,168.581375 630.639221,169.575241 629.742432,172.248169 
	C626.795471,181.032028 630.004639,186.471039 639.068604,187.640839 
	C640.382385,187.810394 641.751465,187.883926 643.058044,187.715546 
	C647.622070,187.127411 648.206482,190.689148 649.919983,193.424057 
	C647.779724,194.611664 646.496887,193.818802 644.878418,193.208771 
	C639.192200,191.065643 633.711243,188.013184 627.330322,188.315018 
	C625.997314,188.378082 624.591064,188.287949 623.798157,189.670822 
	C623.133606,190.829880 622.284851,191.521423 620.980042,190.766052 
	C619.693420,190.021210 620.203064,188.841034 620.298584,187.663803 
	C620.925171,179.940765 621.456665,172.529205 616.908203,165.218231 
	C611.853699,157.093994 604.534363,151.846298 596.164490,149.752258 
	C583.161682,146.499146 571.797363,151.621918 563.495544,162.114059 
	C556.778381,170.603485 559.392273,180.826736 559.814514,190.443634 
	C559.915039,192.732635 561.696045,195.530029 563.556885,197.048141 
	C568.714966,201.256119 572.707397,206.589630 579.804565,208.881332 
	C588.283264,211.619125 596.494873,211.500427 604.614502,209.746399 
	C610.392090,208.498306 611.057312,204.660828 608.063049,199.864517 
	C606.833069,197.894150 605.966064,195.676743 607.279846,193.305069 
	C613.684265,194.902939 613.440308,194.901871 613.414124,200.858337 
	C613.385437,207.383347 611.081543,214.412170 617.349487,219.788986 
	C620.238647,222.267410 622.944397,225.489685 626.443848,226.435501 
	C632.179138,227.985611 637.767029,229.949203 642.152832,233.648880 
	C644.688232,235.787598 647.520142,236.969849 650.224976,238.102661 
	C653.200500,239.348892 656.929138,239.985672 658.724915,235.091446 
	C659.746826,232.306381 661.843140,229.815887 662.857971,226.922897 
	C665.914795,227.726456 665.477966,229.928207 665.134949,231.499435 
	C664.656311,233.692047 665.516113,235.915192 665.098022,237.792618 
	C664.193237,241.856125 668.563477,243.849075 668.210022,247.270554 
	C667.863220,250.626465 669.598145,252.616150 671.823181,254.381683 
	C674.542053,256.539032 677.320984,258.655457 679.346252,261.471191 
	C681.633545,264.651337 686.044250,263.618042 688.188904,265.745941 
	C691.162598,268.696411 694.279785,268.810150 697.746338,268.639435 
	C700.551270,268.501282 703.339478,268.025482 706.238525,268.680298 
	C706.264404,273.995209 706.286621,279.310120 706.318237,284.625000 
	C706.328064,286.279327 706.167175,287.986755 707.460205,289.325928 
	C710.631836,292.610840 713.444458,296.425079 717.137695,298.948914 
	C719.069580,300.269043 720.764404,304.183655 724.062256,302.130249 
	C726.364319,300.696869 729.085571,299.476868 730.464722,296.883514 
	C732.013977,293.970367 733.466003,290.950348 731.165283,287.733063 
	C729.617310,285.568390 725.529358,284.581238 726.253296,281.761597 
	C726.844604,279.458496 729.893799,277.782288 731.865845,275.840973 
	C732.333374,275.380768 732.864197,274.985443 733.344055,274.536957 
	C737.426819,270.721161 741.263184,265.912811 747.541931,271.076233 
	C747.620117,271.140564 747.855164,271.014130 748.173218,271.661774 
M778.120178,622.610596 
	C780.097107,622.622742 780.674805,621.425964 780.670959,619.692871 
	C780.658752,614.199585 781.081787,608.664307 780.541443,603.224182 
	C779.935486,597.121826 774.586304,593.504333 771.365540,588.822205 
	C769.698914,586.399353 766.205261,584.880371 763.231140,583.779114 
	C755.740967,581.005554 747.777893,581.324890 740.379700,583.363464 
	C736.736816,584.367310 731.346680,587.037231 730.256287,590.073975 
	C728.318726,595.470032 723.195129,597.991882 721.387024,603.511963 
	C718.666565,611.817444 717.870728,619.463379 721.649353,627.406189 
	C722.461243,629.112671 722.602478,630.776306 721.272400,632.345459 
	C713.020020,625.570740 706.296082,617.597351 697.858398,609.642334 
	C698.469482,613.108093 700.066895,614.188538 701.276672,615.487427 
	C715.107300,630.336670 728.905823,645.217041 742.885193,659.925354 
	C745.943176,663.142761 745.808167,665.386230 742.444763,668.066284 
	C740.374207,669.716187 737.804993,671.139526 737.029297,674.412598 
	C742.071899,675.071533 742.931946,670.388916 745.748047,668.666321 
	C750.655212,665.664551 748.567566,662.197754 746.252136,659.726074 
	C742.830322,656.073059 740.214111,651.711975 735.970825,648.688843 
	C733.213989,646.724792 731.349365,643.508423 729.113281,640.886230 
	C730.334778,639.688599 731.014587,639.974670 732.055603,640.512451 
	C736.436279,642.776123 740.645264,645.358276 745.839783,645.760193 
	C755.518494,646.508972 763.281067,642.786194 770.124695,636.362488 
	C773.883850,632.834045 776.929443,629.015930 777.070557,623.059875 
	C777.183960,622.918884 777.297363,622.777893 778.120178,622.610596 
M627.683105,715.237610 
	C629.218811,717.503113 631.499573,719.215332 633.014648,721.360901 
	C638.359070,728.929138 649.468445,733.772949 658.519592,732.129639 
	C664.095642,731.117249 668.965088,728.912354 673.945679,726.097534 
	C678.344543,723.611450 681.121826,721.362061 681.235046,715.672607 
	C682.731567,713.942993 683.575806,711.894775 684.860352,709.645508 
	C687.907166,709.205444 687.648621,706.858643 687.661804,704.716492 
	C687.689209,700.250549 687.670044,695.784302 687.670044,691.318237 
	C688.028259,691.040222 688.386475,690.762268 688.744690,690.484253 
	C690.873840,695.138550 694.841248,693.107910 698.315247,694.638794 
	C703.778870,697.834229 708.530701,696.505005 714.353760,694.238647 
	C722.372131,691.117798 728.351196,686.698608 731.739441,679.067017 
	C732.520264,677.308289 735.462830,674.570374 731.671814,671.778870 
	C730.560181,676.459534 729.193726,680.401611 726.301025,683.839233 
	C718.766541,692.793396 708.980591,694.952576 697.470764,693.568237 
	C695.425720,692.460083 693.249695,691.538757 691.357910,690.212097 
	C682.440308,683.958374 676.384155,675.810913 676.872437,664.471069 
	C677.331726,653.805786 683.033386,646.191040 692.394531,641.129333 
	C694.834229,639.810242 697.911682,640.535034 700.450073,638.422180 
	C697.712524,635.551025 695.096191,633.016479 692.730286,630.266541 
	C690.379639,627.534180 687.871155,624.865601 686.713623,622.035706 
	C687.606750,616.602722 694.231506,615.982300 694.768677,610.491516 
	C689.418579,609.835022 686.687683,613.577576 684.971619,616.976807 
	C683.408203,620.073730 682.821472,624.095215 686.400391,627.389954 
	C688.442688,629.270142 690.445801,631.186707 692.594299,632.968750 
	C695.102844,635.049438 694.529175,637.986389 691.584473,639.064087 
	C682.285645,642.466980 677.684937,649.748535 675.277954,658.848938 
	C673.920654,663.980774 676.448792,669.314880 674.523315,674.594666 
	C670.939087,674.757812 668.869080,670.910461 665.358826,671.341919 
	C657.561523,672.300415 649.933289,670.073303 641.837646,674.592651 
	C633.546692,679.221191 627.298401,684.347412 623.662292,692.891785 
	C622.239136,696.235779 623.861816,698.608704 627.224915,699.871460 
	C630.186890,700.983704 632.733459,703.202393 636.742676,705.743164 
	C629.181763,706.011414 627.747131,710.206726 626.338013,714.651062 
	C625.374268,713.180237 623.092590,713.292908 622.657104,710.941223 
	C621.602234,705.244873 620.705078,699.551575 617.439209,694.399231 
	C614.800354,690.236023 611.262878,688.774048 607.734680,692.218872 
	C606.041870,693.871643 604.439209,694.310425 602.473938,694.203003 
	C599.115356,694.019470 598.580444,695.738586 598.146362,698.727478 
	C597.496216,703.204285 600.604370,706.399597 601.099854,710.240845 
	C601.698547,714.882141 603.756470,718.978027 605.089661,723.265503 
	C607.052002,729.576416 605.319275,735.470947 599.096558,737.872742 
	C593.448669,740.052551 592.152527,745.394409 596.651062,749.252075 
	C598.277466,750.646667 598.321289,752.047302 598.219666,753.595703 
	C597.993713,757.038025 599.718506,757.876587 602.774841,757.779602 
	C606.364319,757.665527 609.278381,756.471741 610.857361,753.171875 
	C612.049316,750.681152 613.987305,749.475891 616.412476,750.165100 
	C621.352722,751.569214 625.298096,748.369812 629.776489,747.733154 
	C631.750549,747.452454 632.302124,745.668396 632.752014,743.660156 
	C634.347168,736.539673 628.847046,730.723206 629.407227,723.855835 
	C629.417664,723.728271 629.259338,723.530945 629.128418,723.456055 
	C625.487488,721.373535 626.880249,718.036804 627.683105,715.237610 
M366.565125,666.902222 
	C363.488617,661.427490 358.879730,657.524536 353.417969,654.694458 
	C347.244812,651.495850 344.880127,644.750732 339.130402,640.662354 
	C331.034485,634.905762 322.516113,634.875000 314.922180,637.060852 
	C307.011353,639.337952 299.939423,644.889099 296.141907,653.680237 
	C289.645111,668.720032 293.911804,682.058594 305.228729,690.619202 
	C306.793640,691.802917 307.756714,694.219421 310.511108,693.744019 
	C311.920349,693.500916 313.746368,693.528015 314.137939,695.494629 
	C314.484100,697.233154 313.480988,698.761719 312.347809,699.884094 
	C310.148987,702.061829 307.555328,703.848083 305.410522,706.071655 
	C302.381287,709.212158 302.324493,712.369812 305.149658,716.067078 
	C307.471832,719.106018 310.659698,721.067932 313.083496,723.840576 
	C315.555054,726.667908 317.126312,725.832275 319.552216,723.663696 
	C324.505219,719.236206 326.410034,712.548340 331.579468,708.302246 
	C334.181305,706.165100 336.657013,703.838013 339.060333,701.413086 
	C346.527618,693.878479 350.833740,683.783813 359.640411,677.245361 
	C362.516266,675.110107 366.348450,672.282532 366.565125,666.902222 
M404.938965,694.886230 
	C408.077576,702.111572 408.326813,709.331116 405.181580,716.664795 
	C398.765656,731.624878 382.608459,737.842468 367.229126,731.179749 
	C352.744659,724.904602 346.426300,708.575928 352.849945,694.018982 
	C355.213043,688.663879 356.218719,688.252319 361.323425,690.942200 
	C371.138550,696.113953 380.916687,701.355896 390.641846,706.532349 
	C392.675232,704.283203 391.906372,702.278259 391.388977,700.442139 
	C389.624786,694.180969 382.343567,689.334656 374.676971,689.163208 
	C368.687866,689.029236 368.064606,688.178162 366.791473,680.363464 
	C365.959625,675.257751 370.464081,676.828674 372.657410,675.379822 
	C371.732391,675.303955 370.860596,675.380676 370.083984,675.144470 
	C365.358734,673.707214 364.057159,675.997925 364.284119,680.236816 
	C364.415192,682.684753 364.307892,685.145447 364.307892,687.602356 
	C360.221954,687.522339 355.991211,685.794312 353.247345,688.361328 
	C350.839661,690.613892 348.655426,694.442322 348.606659,697.609070 
	C348.495117,704.850464 346.528046,712.251099 351.011688,719.366760 
	C356.279968,727.727600 363.058441,733.344727 372.791199,734.837646 
	C376.961304,735.477356 381.309875,734.405273 385.355896,736.711914 
	C386.887604,737.585205 388.874146,736.833740 390.442352,735.541565 
	C392.093872,734.180725 393.949310,733.068604 395.705414,731.833252 
	C403.691071,726.215637 408.672607,718.898560 408.702057,708.793762 
	C408.708862,706.461609 408.718536,704.128723 408.671692,701.797302 
	C408.520935,694.292175 405.786438,688.322144 399.510284,683.661926 
	C396.573578,681.481262 393.177734,680.217102 390.377716,677.849365 
	C386.942596,674.944519 386.777710,675.139526 380.819519,675.897400 
	C391.556458,679.331909 399.438446,685.088196 404.938965,694.886230 
M244.611984,382.601654 
	C245.467117,378.301208 242.782120,377.095032 239.430130,377.399048 
	C232.253738,378.050049 225.132629,375.918121 217.778259,379.780304 
	C212.730911,382.430939 209.825882,385.555603 206.885437,390.032318 
	C203.491409,395.199493 204.496979,400.846771 203.197922,406.190430 
	C202.013168,411.063812 203.170898,416.127533 204.694901,420.300171 
	C208.219269,429.949738 217.006393,434.933563 226.223801,437.387665 
	C238.460602,440.645599 252.241043,433.710236 258.536743,422.570557 
	C259.640442,420.617645 261.681580,419.136261 261.660614,416.500275 
	C261.590515,407.683075 261.887390,398.855408 261.551270,390.050568 
	C261.339813,384.511536 256.420715,382.671600 251.664932,385.629364 
	C249.106796,387.220337 246.107208,388.101440 242.966583,389.448822 
	C242.692886,386.870483 242.077194,384.742035 244.611984,382.601654 
M779.121033,359.510315 
	C769.027405,355.327484 764.578552,346.592255 761.240295,336.663452 
	C764.763000,335.458466 767.159607,332.209717 771.770813,331.125916 
	C777.842590,329.698883 783.834290,326.570221 789.510498,323.332489 
	C791.577576,322.153473 794.308289,321.233307 796.711243,324.547729 
	C799.936279,328.995911 799.890259,334.715302 803.230164,338.973877 
	C803.398193,339.188080 803.233704,339.635559 803.307678,339.955078 
	C804.912537,346.888947 796.643005,354.743713 790.730652,357.411774 
	C789.464844,357.982971 787.689087,357.930237 787.719788,360.106537 
	C788.209717,360.280579 788.692810,360.640839 789.099915,360.569244 
	C799.040222,358.821289 806.276917,348.078888 804.311035,338.130737 
	C803.166199,332.337830 800.177979,327.267578 798.133362,321.830536 
	C796.974792,318.749725 795.302979,318.734222 792.748535,319.840820 
	C786.949341,322.352936 780.995300,324.525513 775.284546,327.218689 
	C769.771423,329.818634 763.718079,331.291779 758.465942,334.784302 
	C759.764038,339.777405 761.789246,344.125519 763.870361,348.467346 
	C766.317139,353.571991 769.542603,357.916626 774.963501,360.104706 
	C776.266846,360.630768 777.836853,362.400482 779.121033,359.510315 
M751.580200,316.310730 
	C748.100586,317.348877 745.255310,320.320953 741.166077,319.635040 
	C740.656433,319.549530 739.894653,320.566071 739.349365,321.162964 
	C736.788452,323.966736 736.485291,331.555420 739.372681,334.943420 
	C743.908569,340.265686 745.408325,346.987915 747.915466,353.122650 
	C750.543274,359.552765 754.015381,364.897858 759.110413,369.366364 
	C757.280029,366.049469 754.783508,363.083496 753.239807,359.684723 
	C748.566772,349.395905 744.263062,338.939423 739.815857,328.548065 
	C738.512451,325.502716 739.329468,323.780670 742.594910,322.489197 
	C752.335510,318.636810 761.960022,314.486755 771.588684,310.357056 
	C778.003174,307.605927 784.347290,304.690765 790.722900,301.849060 
	C790.489746,301.325958 790.256653,300.802856 790.023499,300.279785 
	C777.463013,305.578278 764.364197,309.535400 751.580200,316.310730 
M755.221069,492.671478 
	C752.898621,495.437897 752.916321,497.937500 755.872498,500.322815 
	C759.142395,502.961334 762.360352,504.921326 766.575867,502.088989 
	C771.320435,498.901184 770.411499,494.760590 769.863647,489.920746 
	C769.411682,485.927216 766.768127,484.925903 764.462036,483.733612 
	C761.825806,482.370667 759.888123,484.716187 758.499512,486.863190 
	C757.425659,488.523529 756.567444,490.323395 755.221069,492.671478 
M512.216675,154.516708 
	C512.191589,156.012863 512.250793,157.516205 512.124084,159.003708 
	C511.843048,162.302490 513.010681,163.983734 516.602905,163.824738 
	C520.748047,163.641266 524.928040,164.046738 529.056458,163.726334 
	C536.194397,163.172318 540.162842,158.359573 539.723145,151.299942 
	C539.381104,145.807449 536.110596,142.493896 529.360779,140.801178 
	C515.691223,137.373123 512.547607,139.715836 512.216675,154.516708 
M769.108398,479.270416 
	C771.193237,483.424286 775.754700,484.093262 779.309692,485.508942 
	C782.599365,486.819031 785.612793,488.653687 788.833069,490.037567 
	C797.961182,493.960236 805.936890,500.444305 817.327515,502.854767 
	C815.845947,501.790131 815.477173,501.444824 815.044495,501.225922 
	C802.315247,494.786987 789.572998,488.373627 776.851440,481.919708 
	C774.668884,480.812439 771.656921,480.196686 771.059814,477.611176 
	C769.918823,472.670319 770.890320,467.576569 772.333008,462.885010 
	C773.240723,459.933228 777.273438,459.971710 779.945679,458.785950 
	C781.999268,457.874664 784.715149,458.158203 785.598633,455.118835 
	C782.535950,457.408081 779.109619,457.644775 775.586548,457.529968 
	C775.151367,457.515778 774.670837,457.876160 774.264465,458.143707 
	C768.445435,461.975555 765.634949,472.084778 769.108398,479.270416 
M695.099976,655.680786 
	C691.161133,662.247559 691.562622,667.109253 696.524658,672.934021 
	C700.593445,677.710205 706.381775,679.685547 711.093384,677.905762 
	C716.969604,675.685974 720.586853,670.858337 720.609497,665.205383 
	C720.630249,660.015930 716.039124,653.538025 710.744568,651.286377 
	C705.111328,648.890564 700.602966,650.018066 695.099976,655.680786 
M758.216675,261.990021 
	C758.977173,262.641205 759.026917,264.136627 760.502991,264.022217 
	C760.914673,261.964508 760.295959,260.532867 758.788940,259.100952 
	C757.026550,257.426392 757.347046,255.170563 758.443237,253.165024 
	C760.016113,250.287415 764.320190,248.628311 763.391968,244.787994 
	C762.536438,241.248566 758.600952,239.584991 756.518188,236.657349 
	C756.158569,236.151825 755.305542,235.982468 754.982788,235.468063 
	C752.884094,232.123657 748.433777,232.461319 747.112183,233.794662 
	C744.112244,236.821228 740.725403,236.355225 736.659546,236.673965 
	C738.935120,239.328735 739.559204,243.527451 743.975403,240.137146 
	C751.376892,234.454910 751.400696,234.486328 757.481567,241.683762 
	C757.695923,241.937469 757.890564,242.220886 758.147095,242.423904 
	C762.132874,245.577789 761.044617,247.957474 757.260254,250.422699 
	C755.439697,251.608673 753.145386,252.721313 752.634460,255.598633 
	C754.333679,257.509766 756.091431,259.486633 758.216675,261.990021 
M372.806671,719.921875 
	C379.463104,721.516357 383.329620,720.372803 386.269653,715.727051 
	C379.506836,711.447083 372.531372,707.643005 365.034851,704.499756 
	C363.460693,711.780273 365.265625,715.427002 372.806671,719.921875 
M816.778320,358.680878 
	C816.581665,359.820190 815.101318,360.833344 816.653809,362.483795 
	C823.805664,350.732727 823.099548,338.740814 818.376160,326.828033 
	C817.043823,323.467682 816.529724,319.269958 812.746460,316.879944 
	C817.842957,330.325836 821.782593,343.735596 816.778320,358.680878 
M234.714462,535.040283 
	C233.230865,528.135315 231.469528,521.314392 228.981369,514.585083 
	C225.916275,515.505493 224.755981,517.552002 223.761658,519.677246 
	C225.364456,521.643372 227.126694,519.532410 228.930664,520.598389 
	C229.332947,525.422974 229.928696,530.472595 233.945221,534.756287 
	C228.244843,534.995789 225.587570,531.962585 222.965332,523.434998 
	C221.418350,530.738403 225.866165,537.218567 232.820389,538.115417 
	C235.191849,538.421204 235.474075,537.627930 234.714462,535.040283 
M792.468628,533.910095 
	C792.393311,537.404114 789.606079,540.564819 790.995911,544.530762 
	C793.775330,544.220459 796.255798,543.961365 797.836365,541.665833 
	C796.622192,539.417297 791.124756,540.677124 793.302063,537.816833 
	C796.144165,534.083313 795.462769,529.554260 797.840576,525.478699 
	C799.373413,527.400940 800.581116,528.915405 801.751587,530.383301 
	C799.594971,535.220154 799.594971,535.220154 800.509521,537.934021 
	C805.425964,532.569763 803.359070,523.972534 796.536560,521.956360 
	C794.434998,525.383606 794.211975,529.490845 792.468628,533.910095 
M770.112244,427.137207 
	C766.204285,416.743744 766.700867,406.448975 770.762146,396.080109 
	C765.205566,398.923462 768.948425,406.166199 764.402161,409.367859 
	C765.361389,419.000793 766.496094,428.568726 773.999939,435.762634 
	C773.019653,433.049774 771.192627,430.702667 770.112244,427.137207 
M816.317810,528.645996 
	C816.833984,532.749084 815.328125,536.669250 814.826111,541.785217 
	C821.105957,535.858337 819.064819,528.996155 818.038635,523.496094 
	C817.439514,520.285400 816.861633,514.728577 811.995361,512.987854 
	C813.681763,517.910278 815.871033,522.554077 816.317810,528.645996 
M794.110413,377.711548 
	C791.956604,378.344482 789.802795,378.977417 787.006470,379.799133 
	C789.237366,380.591797 791.213684,381.044373 789.096619,383.691620 
	C793.057800,383.321320 796.542053,384.467926 800.464844,382.316376 
	C792.355774,375.217651 804.970947,378.151825 804.272766,373.815948 
	C800.916321,375.119873 797.883850,376.297974 794.110413,377.711548 
M785.997009,433.902344 
	C785.644226,434.592712 784.771729,435.061890 785.076721,436.043182 
	C793.933411,431.520691 794.034851,431.320038 790.886597,423.737335 
	C789.013123,427.392242 786.847717,423.265717 784.577209,423.976257 
	C788.088440,430.006775 788.088440,430.006775 785.997009,433.902344 
M796.344360,474.861298 
	C797.273560,475.084656 798.172058,475.792969 799.163086,475.039673 
	C797.470154,470.371307 797.644043,470.086884 802.610962,469.632263 
	C804.167297,469.489807 805.915649,469.693665 806.410156,466.342926 
	C801.065186,468.169250 796.240540,469.248901 791.754333,471.914062 
	C792.902344,473.637878 794.452209,473.928894 796.344360,474.861298 
M822.377869,400.054779 
	C820.820862,398.376099 821.978577,395.332153 819.053528,393.854950 
	C819.902527,396.496368 820.405579,398.871979 821.420837,401.003662 
	C822.547363,403.368988 822.005798,406.248077 824.010559,408.660004 
	C825.132202,405.540405 824.598389,402.970917 822.377869,400.054779 
M787.302612,409.042450 
	C787.407959,409.350433 787.434509,409.727325 787.632812,409.953979 
	C788.325012,410.745270 788.822327,410.264038 788.826965,409.533020 
	C788.840759,407.339691 789.647095,404.971710 787.703003,403.025421 
	C785.399292,403.608276 784.007446,404.936157 783.619751,407.099060 
	C784.346619,409.007446 786.201477,407.369568 787.302612,409.042450 
M779.653870,380.586212 
	C780.252258,380.493378 780.985779,380.705109 781.388000,379.493500 
	C778.039307,379.742340 775.053650,377.661652 771.112976,378.452667 
	C773.523926,381.747559 776.545227,380.074860 779.653870,380.586212 
M553.218567,181.846436 
	C554.952026,179.968628 555.492188,178.028259 553.453796,175.449509 
	C550.419861,177.492065 550.348267,179.493881 553.218567,181.846436 
M774.164062,389.572510 
	C773.571899,390.571869 771.779724,391.060883 772.907593,393.027252 
	C774.961670,391.660187 777.074829,390.530884 778.066711,388.006348 
	C776.359741,387.176147 775.446289,388.178436 774.164062,389.572510 
z"/>
<path fill="#000000" opacity="1.000000" stroke="none" 
	d="
M469.991394,729.021545 
	C474.246643,724.819153 475.804779,718.723999 480.326782,714.529968 
	C482.230438,712.764465 483.643585,711.667053 486.171021,711.861450 
	C497.779877,712.754089 499.964966,715.361084 498.407928,726.768616 
	C497.909790,730.418396 498.455322,733.980774 498.732330,737.546204 
	C500.305786,737.640076 499.666046,736.218323 500.702484,735.795654 
	C501.461365,744.202454 503.705475,752.453979 502.400848,761.157898 
	C502.026550,755.783875 498.156311,751.794800 497.112061,746.884399 
	C496.044708,741.865540 492.777039,737.197937 494.629761,731.530701 
	C495.115997,730.043518 493.867859,727.662598 490.247467,727.400635 
	C491.339142,735.237854 494.728821,743.263367 488.056274,750.331665 
	C484.285950,745.802185 486.653137,740.062317 484.080688,735.004639 
	C479.785522,742.351562 475.589050,749.392639 471.532867,756.513672 
	C468.567474,761.719543 465.774017,767.023682 462.927246,772.296631 
	C460.100189,777.533020 458.969269,777.707764 450.734100,776.479431 
	C445.625061,775.717468 444.309906,772.430969 443.768127,768.192078 
	C442.038849,754.661865 440.326935,741.129395 438.589722,727.600159 
	C438.532532,727.154602 438.274414,726.734802 437.796509,725.480042 
	C433.161835,733.826721 428.843567,741.594788 424.533997,749.367676 
	C421.548401,754.752686 418.430847,760.071533 415.654480,765.562622 
	C414.184204,768.470459 412.205200,769.387634 409.193329,768.672668 
	C407.573730,768.288269 405.929382,768.007812 404.310516,767.620667 
	C399.642120,766.504272 398.613922,764.396362 400.997955,760.095642 
	C411.236053,741.626282 421.569336,723.209717 431.842224,704.759583 
	C432.525879,703.531738 433.193054,702.351746 434.811768,702.603821 
	C439.248627,703.294739 443.683472,704.008179 448.099426,704.819946 
	C450.699615,705.297913 450.628784,707.615723 450.956299,709.529053 
	C451.853821,714.771851 452.673157,720.028015 453.734131,725.584229 
	C453.944824,725.889465 453.996002,725.977356 454.036560,726.473389 
	C453.972900,735.386597 455.401001,743.603760 457.120483,753.382812 
	C461.700531,744.244263 466.907288,737.186890 470.031158,728.966980 
	C470.031158,728.966980 470.003937,729.002747 469.991394,729.021545 
z"/>
<path fill="#000000" opacity="1.000000" stroke="none" 
	d="
M275.030640,281.962769 
	C271.381531,278.778442 268.005737,275.818848 264.598389,272.896057 
	C263.065735,271.581329 262.343842,270.153839 263.145874,268.080048 
	C264.774414,263.869141 270.313324,260.500824 274.960419,261.031311 
	C278.403046,244.773682 289.167236,235.226730 303.285645,235.909164 
	C316.532501,236.549484 328.828247,248.646759 330.021271,262.639557 
	C330.780884,271.548767 324.285461,286.975067 309.319916,289.779572 
	C310.234467,293.169464 314.682953,293.717010 315.420227,297.125519 
	C307.790863,303.294220 307.996185,305.079865 317.391144,313.928802 
	C314.649933,316.669891 312.555206,314.638214 310.646118,312.986664 
	C298.828400,302.763123 287.069550,292.471527 275.030640,281.962769 
M296.452301,251.761963 
	C286.055084,255.684006 283.183807,265.820526 290.138824,274.050415 
	C294.619507,279.352417 302.191040,281.169739 307.695465,278.264343 
	C313.226685,275.344818 316.224518,268.680939 314.548798,263.030243 
	C312.490753,256.090271 304.876923,251.062607 296.452301,251.761963 
z"/>
<path fill="#000000" opacity="1.000000" stroke="none" 
	d="
M284.009460,338.981873 
	C279.837219,342.744110 275.757874,346.407227 270.288666,348.640076 
	C253.241821,355.599548 233.252533,339.374908 233.963730,323.591034 
	C234.549484,310.590942 239.729111,301.166962 250.094650,294.488007 
	C259.061523,288.710297 268.547974,289.698364 277.500702,295.113525 
	C286.903107,300.800720 291.006165,309.321442 290.656097,320.273773 
	C290.438812,327.072357 287.530334,332.748535 284.080963,338.683716 
	C283.973297,339.021393 283.999054,338.996521 284.009460,338.981873 
M275.640503,325.184631 
	C278.154877,317.596924 275.181488,311.887085 266.645020,307.910553 
	C259.708893,304.679504 252.173416,307.465790 249.248978,314.342896 
	C246.004379,321.972900 249.452621,329.551422 257.552277,332.914337 
	C263.918488,335.557465 273.612885,333.217560 275.022430,326.021484 
	C275.022430,326.021484 275.286224,325.762878 275.640503,325.184631 
z"/>
<path fill="#000000" opacity="1.000000" stroke="none" 
	d="
M248.828278,352.261230 
	C241.410583,350.846954 234.535675,347.946655 227.514908,346.046173 
	C222.707306,344.744843 218.254868,341.022552 212.732712,342.211395 
	C211.398392,342.498657 210.256958,341.866913 209.296021,340.679443 
	C206.869934,337.681396 203.426712,337.534973 200.143524,338.414276 
	C196.675247,339.343140 198.476852,342.580536 198.035568,344.824615 
	C197.850433,345.766113 198.078308,346.894379 196.219711,347.403076 
	C193.918991,343.753571 196.881943,340.591064 197.691666,337.516968 
	C198.420456,334.750122 201.563202,334.816620 204.117233,334.983765 
	C211.242203,335.450043 211.475540,335.285828 212.717621,328.361694 
	C213.863220,321.975494 216.829178,318.930817 223.424942,317.894440 
	C226.295395,317.443420 227.595840,315.730286 227.754730,313.241302 
	C228.280609,305.003754 233.507217,299.254181 238.407715,293.541412 
	C242.922913,288.277802 248.110977,283.555908 253.988281,279.708740 
	C255.519058,278.706696 257.408325,277.518250 256.267151,275.347107 
	C252.665359,268.494568 256.761017,263.998169 260.887268,259.500885 
	C262.910400,257.295837 264.982788,255.113022 267.224030,253.136902 
	C269.907623,250.770782 271.698303,247.961243 273.203491,244.704117 
	C275.637665,239.436707 280.344543,235.876236 284.950256,232.831848 
	C287.969635,230.836014 291.292877,229.221298 293.771637,226.555038 
	C296.463013,223.660019 298.651764,222.889435 302.177063,225.692429 
	C305.922028,228.670074 308.835693,227.649170 311.558807,223.125961 
	C313.375824,226.431793 313.535309,230.165649 315.706177,233.027420 
	C316.372375,233.905640 315.669128,235.362411 314.387878,235.851410 
	C312.961029,236.395966 311.179993,236.799072 310.104156,235.674286 
	C305.449860,230.808304 299.428528,232.578033 294.756409,233.892761 
	C285.346558,236.540680 276.541290,241.021637 274.951172,252.564774 
	C274.741211,254.088730 273.671478,255.508209 272.211273,255.906998 
	C267.843506,257.099884 265.277893,260.615662 262.169128,263.385132 
	C257.459991,267.580261 258.525269,271.117371 263.368317,275.082794 
	C268.655090,279.411530 272.888702,285.026520 277.684326,290.191711 
	C275.701996,290.613312 273.239594,290.792175 271.109772,289.714966 
	C265.622925,286.939850 260.866974,286.744659 254.832825,289.619965 
	C248.939651,292.428101 243.139511,294.698822 238.808945,299.821014 
	C235.538818,303.688904 232.648117,307.501648 233.165817,313.037170 
	C233.441055,315.980103 231.506271,319.429779 231.954376,321.666870 
	C233.336884,328.569061 232.230560,336.105072 237.935654,342.220184 
	C241.380539,345.912659 246.263199,347.109497 249.369507,351.287292 
	C249.294205,351.791473 249.160812,351.925446 248.828278,352.261230 
z"/>
<path fill="#000000" opacity="1.000000" stroke="none" 
	d="
M246.000916,478.998901 
	C236.004181,483.504333 225.999939,487.996338 216.010727,492.521454 
	C205.695877,497.194092 204.064835,496.243988 203.050583,485.067322 
	C202.836899,482.712433 204.388779,482.076080 205.990082,481.033661 
	C213.711670,476.007202 222.392029,472.972351 230.585449,468.934052 
	C232.336746,468.070862 234.297485,467.558289 236.185883,465.437103 
	C226.344269,461.600555 216.834854,457.835266 207.278687,454.192535 
	C202.414368,452.338348 199.484756,446.002899 201.490204,441.070251 
	C202.328232,439.009033 203.818283,437.744202 206.205719,438.630676 
	C221.640518,444.362152 237.066483,450.117401 252.486649,455.888123 
	C254.208588,456.532532 254.859222,458.017487 255.379883,459.695251 
	C258.153198,468.632507 256.369873,473.131836 248.208923,477.508667 
	C247.622345,477.823242 247.065491,478.193207 246.245819,478.769287 
	C245.996826,479.001221 246.000000,479.000000 246.000916,478.998901 
z"/>
<path fill="#000000" opacity="1.000000" stroke="none" 
	d="
M403.538635,175.156265 
	C403.146729,172.878540 402.796204,170.977036 402.383331,168.737427 
	C405.330078,169.056152 405.619019,170.920837 406.151031,172.610657 
	C407.912079,178.204239 411.783020,181.365967 416.912445,179.378555 
	C424.350342,176.496765 431.331879,177.730423 438.306458,179.701141 
	C443.498352,181.168137 447.987213,177.920807 453.013672,178.678421 
	C456.688385,179.232300 460.171295,179.715759 463.643250,182.899612 
	C460.547424,183.410324 458.257446,182.903824 455.936218,182.397980 
	C447.106903,180.473892 438.805786,187.793579 440.201447,196.407120 
	C440.868927,200.526733 442.253662,203.704483 447.065125,204.799988 
	C444.025238,205.997925 444.025238,205.997940 441.563141,204.681076 
	C437.016876,202.249496 435.816345,202.761948 434.776703,207.577942 
	C433.321289,214.320023 430.079803,216.326385 423.584778,213.830719 
	C417.978485,211.676529 412.693268,208.790543 408.886688,203.858780 
	C407.769073,202.410767 406.705994,200.874451 403.978607,200.906128 
	C401.765228,207.663177 408.978271,212.884277 407.530212,220.481476 
	C402.565216,213.368546 399.553314,206.437347 396.694672,199.423828 
	C396.196045,198.200592 395.857758,196.841766 395.089813,195.810318 
	C391.148346,190.516556 392.132721,184.357803 398.366486,182.296097 
	C402.382263,180.967926 402.845856,178.541931 403.538635,175.156265 
z"/>
<path fill="#000000" opacity="1.000000" stroke="none" 
	d="
M326.971558,209.048676 
	C329.712921,203.668335 332.855164,199.001846 339.168701,196.861526 
	C350.165436,193.133560 364.068390,197.827560 370.083221,207.801880 
	C371.593048,210.305664 371.240540,211.786575 368.772797,213.531128 
	C359.957764,219.762894 351.320099,226.245712 342.619354,232.639008 
	C341.839386,233.212128 340.831055,233.620575 340.862732,234.846359 
	C347.014923,239.994339 353.582855,238.443726 363.194214,229.575012 
	C363.097229,233.175354 361.249481,236.055984 357.815674,237.712662 
	C354.241913,239.436905 350.599518,241.019028 347.029053,242.749771 
	C345.244263,243.614929 343.391968,244.467896 341.848175,245.680252 
	C336.368103,249.983826 334.587891,249.888947 328.790680,245.785294 
	C318.239868,238.316727 317.369141,225.274933 320.263336,214.802246 
	C321.093781,211.797241 324.189819,210.942245 326.755402,209.460907 
	C327.347504,210.909027 327.966766,212.065689 329.394012,211.394196 
	C331.215057,210.537415 332.638977,209.180176 331.842102,206.785782 
	C329.466919,206.268127 328.549164,208.343445 326.971558,209.048676 
M348.698792,216.203476 
	C350.166382,214.749908 352.623901,214.324051 353.249817,211.982407 
	C348.288940,207.634491 341.656097,207.756943 336.613800,212.210358 
	C331.918060,216.357681 331.075897,221.346619 334.557007,226.553162 
	C339.085846,223.239960 343.604797,219.934006 348.698792,216.203476 
z"/>
<path fill="#000000" opacity="1.000000" stroke="none" 
	d="
M753.750854,573.329102 
	C744.671448,569.377380 743.842407,565.398926 750.067261,557.783997 
	C752.499573,554.808472 755.114624,556.013428 757.703857,557.191040 
	C770.719604,563.110718 783.714233,569.077026 796.702271,575.057373 
	C800.150330,576.645081 803.882263,577.770752 806.558655,580.700623 
	C808.500488,582.826416 809.717529,584.722839 805.762939,586.210327 
	C802.992249,587.252502 802.622803,589.410828 804.326233,591.845459 
	C804.987305,592.790283 805.855896,593.650757 805.251831,595.907410 
	C787.662231,589.489014 771.125366,580.889954 753.750854,573.329102 
z"/>
<path fill="#000000" opacity="1.000000" stroke="none" 
	d="
M268.005280,378.993835 
	C263.929901,379.819305 260.569763,377.497711 257.013306,376.297363 
	C242.355179,371.350159 227.764465,366.202393 213.169266,361.070587 
	C211.377792,360.440674 209.201111,360.149170 208.526199,357.855804 
	C209.604782,355.202423 212.048294,356.380554 213.767014,355.737610 
	C214.876358,355.322601 216.083084,355.011047 216.388763,353.700287 
	C216.715454,352.299408 215.637024,351.658417 214.665527,350.972198 
	C211.076736,348.437103 207.485062,345.908569 203.169250,344.330933 
	C204.611816,341.319702 206.343613,342.029907 208.071930,342.613403 
	C226.670715,348.892242 245.292191,355.104645 263.863647,361.463226 
	C272.334473,364.363525 272.258087,364.481171 269.136353,373.354767 
	C268.592438,374.900818 268.448944,376.587738 268.054871,378.609741 
	C267.989227,379.009888 268.000092,378.999603 268.005280,378.993835 
z"/>
<path fill="#000000" opacity="1.000000" stroke="none" 
	d="
M379.003113,174.827118 
	C380.423492,175.760376 381.550720,176.701904 382.886322,177.817505 
	C385.538391,172.340607 389.517578,168.076035 395.272125,165.274994 
	C397.458038,168.991547 399.604706,172.641373 401.632050,176.088348 
	C401.426056,177.804001 400.176514,178.037399 399.197540,178.632996 
	C391.099213,183.560013 389.294464,189.273560 392.907440,198.090103 
	C394.318451,201.533249 396.805298,204.683441 396.233612,209.062088 
	C392.415222,208.959198 391.341797,204.197144 387.285278,204.602570 
	C384.972321,206.158936 385.725861,210.093689 382.792328,211.918198 
	C380.061096,209.879791 379.488556,206.644836 378.153198,203.906052 
	C374.948639,197.333572 371.767487,190.747849 368.709076,184.106613 
	C366.679047,179.698441 369.047089,176.390610 373.757599,177.388306 
	C376.539368,177.977509 376.924744,175.359726 379.003113,174.827118 
z"/>
<path fill="#000000" opacity="1.000000" stroke="none" 
	d="
M492.081879,182.681427 
	C492.009125,184.462585 491.979980,185.795959 491.878845,187.123871 
	C491.799255,188.169083 491.526367,189.152222 490.204651,189.184525 
	C488.961090,189.214935 488.323181,188.361145 488.277161,187.311432 
	C487.906647,178.857010 481.158325,176.268051 475.120514,173.298859 
	C467.875702,169.736069 467.373535,168.456482 469.917725,160.548370 
	C471.654419,155.150284 474.400360,151.332870 479.777832,148.845947 
	C484.615753,146.608536 487.406433,141.950089 488.618347,136.710648 
	C489.592133,132.500717 492.318329,129.108826 493.505493,124.841843 
	C495.795105,129.091049 496.078247,133.624802 494.671417,137.614365 
	C492.733582,143.109802 492.278320,148.570526 492.297821,154.251129 
	C492.329834,163.577499 492.172150,172.904541 492.081879,182.681427 
z"/>
<path fill="#000000" opacity="1.000000" stroke="none" 
	d="
M336.032715,194.036697 
	C335.315613,190.402054 338.299866,190.032654 340.490662,189.310013 
	C344.904968,187.854004 349.385681,187.313736 354.107452,188.235458 
	C358.546356,189.101974 363.967377,183.062744 362.339752,178.958771 
	C361.233124,176.168472 362.740570,175.866196 364.692291,175.056458 
	C364.989655,174.994675 364.963776,174.969070 364.963776,174.969070 
	C361.540375,181.085999 366.282318,185.589401 368.262878,190.515839 
	C369.806946,194.356552 372.232727,197.836044 373.411316,201.886734 
	C374.123535,204.334549 376.388763,205.803284 377.648254,208.053925 
	C380.002319,212.260422 379.083710,217.406616 382.519867,221.133911 
	C384.397186,223.170288 382.629486,225.807373 381.989624,228.297714 
	C380.775513,225.516068 379.939636,222.566223 377.124481,221.000793 
	C374.259430,219.407578 370.841003,221.135010 367.884216,219.584396 
	C367.665009,217.035812 370.136749,216.441391 371.236023,215.004822 
	C374.373322,210.904892 374.628082,208.258026 371.521332,204.357407 
	C369.160217,201.392914 365.117920,200.018311 363.051605,197.748276 
	C359.027283,193.327209 353.215759,195.677658 349.458405,192.081848 
	C347.605652,190.308762 345.076752,191.506851 343.404663,192.553574 
	C341.237335,193.910294 339.122742,194.119949 336.401489,194.005493 
	C336.014832,194.015732 336.032715,194.036697 336.032715,194.036697 
z"/>
<path fill="#000000" opacity="1.000000" stroke="none" 
	d="
M222.502441,470.319153 
	C219.005630,469.881561 217.806763,473.404358 214.616867,473.746674 
	C211.639725,474.066162 208.842529,476.258179 205.532059,476.850952 
	C203.375137,477.237183 200.688416,478.360046 200.660080,481.670441 
	C197.500641,480.209412 198.119034,478.480103 199.654129,476.774628 
	C201.327682,474.915344 203.273514,473.401062 205.517593,472.201080 
	C212.395691,468.523193 212.426636,465.208160 205.778625,460.847290 
	C204.120117,459.759399 202.484436,458.603088 201.003799,457.291382 
	C200.240067,456.614777 200.060455,455.478302 200.995361,454.649536 
	C201.852173,453.889893 203.193130,453.810852 203.641968,454.708191 
	C205.618790,458.660583 210.232132,459.336365 212.963364,459.213898 
	C219.428070,458.923981 222.796799,465.750824 229.315262,464.592163 
	C226.585281,466.281433 226.730667,470.580292 222.502441,470.319153 
z"/>
<path fill="#000000" opacity="1.000000" stroke="none" 
	d="
M365.000061,175.009171 
	C366.664856,171.528076 369.695618,169.975647 373.283783,169.413757 
	C377.451416,168.761124 381.321777,167.730667 384.236206,164.301193 
	C385.397797,162.934296 387.090973,162.007019 389.665070,164.070450 
	C385.087128,167.158173 383.124298,173.422897 376.170441,172.210007 
	C372.271027,171.529877 369.458344,174.937653 365.354126,174.940338 
	C364.963776,174.969070 364.989655,174.994675 365.000061,175.009171 
z"/>
<path fill="#000000" opacity="1.000000" stroke="none" 
	d="
M357.744141,224.828156 
	C358.492493,223.053497 359.516785,222.796921 360.504333,223.958832 
	C361.395630,225.007568 361.682770,226.526154 360.996094,227.702499 
	C358.009949,232.818375 352.271423,233.588593 347.513458,235.870865 
	C346.938232,236.146790 346.081848,235.213013 345.758240,234.148041 
	C348.216064,229.295395 354.514374,229.283691 357.744141,224.828156 
z"/>
<path fill="#000000" opacity="1.000000" stroke="none" 
	d="
M475.362122,761.867065 
	C474.695007,762.765076 474.246765,763.478333 472.479248,763.375305 
	C474.236603,757.053528 477.725555,751.796936 480.271484,745.738342 
	C483.511536,750.233154 483.308380,753.514343 480.000336,756.385681 
	C478.245758,757.908752 476.535095,759.449829 475.362122,761.867065 
z"/>
<path fill="#000000" opacity="1.000000" stroke="none" 
	d="
M316.726532,213.681915 
	C314.694580,210.820328 315.639038,205.582748 318.449768,202.992416 
	C319.947601,201.612061 321.534027,200.198990 323.460144,203.270126 
	C319.976013,204.835693 318.905762,207.694748 318.979462,211.202118 
	C319.004944,212.413452 318.441223,213.469528 316.726532,213.681915 
z"/>
<path fill="#000000" opacity="1.000000" stroke="none" 
	d="
M322.013336,296.637238 
	C320.222778,295.641541 318.753754,294.630249 317.277527,293.614014 
	C317.842712,291.519623 318.341339,288.615082 320.737305,289.949127 
	C322.517365,290.940216 325.199127,293.606842 322.013336,296.637238 
z"/>
<path fill="#000000" opacity="1.000000" stroke="none" 
	d="
M484.083984,756.083618 
	C484.084991,753.874207 484.084991,752.090393 484.084991,750.306519 
	C484.309143,750.306274 484.533325,750.305969 484.757477,750.305664 
	C484.757477,756.820374 484.757477,763.335022 484.757477,770.109619 
	C483.450745,769.394897 484.249390,767.255066 482.291382,766.966736 
	C480.996887,766.776123 480.747070,764.658936 481.763397,764.218750 
	C485.801544,762.470215 483.348114,759.059998 484.083984,756.083618 
z"/>
<path fill="#000000" opacity="1.000000" stroke="none" 
	d="
M336.009735,194.005676 
	C333.585968,195.395981 331.665100,197.943756 327.818695,197.561905 
	C329.049255,192.873672 331.846802,192.703644 335.670074,193.954803 
	C336.032715,194.036697 336.014832,194.015732 336.009735,194.005676 
z"/>
<path fill="#000000" opacity="1.000000" stroke="none" 
	d="
M684.146423,709.712891 
	C683.575806,711.894775 682.731567,713.942993 680.755859,716.144653 
	C678.934509,718.093567 677.668945,719.649536 676.238037,721.034790 
	C664.576355,732.324768 645.660583,732.231873 635.483948,720.867920 
	C628.406311,712.964539 628.677368,711.294556 637.832458,706.408203 
	C639.593445,705.468323 641.396179,704.599243 643.110840,703.581482 
	C649.914856,699.542480 656.691589,695.457581 663.880615,691.148621 
	C661.448547,688.228394 658.768921,687.452332 655.955566,687.394348 
	C648.370422,687.237976 643.141541,691.269470 639.254456,697.360718 
	C637.105652,700.728027 632.268799,701.245544 627.622986,698.170227 
	C624.385498,696.027222 626.460266,693.152954 627.621216,691.142334 
	C632.588928,682.538696 640.406860,677.771484 649.620117,674.253235 
	C660.199829,670.213257 674.199890,676.311829 680.225159,685.350647 
	C685.315002,692.986145 685.940674,701.094543 684.146423,709.712891 
M655.904663,716.632141 
	C666.328552,716.477844 672.132751,709.285950 668.807495,699.987061 
	C661.952271,703.920105 655.176025,707.807800 648.389282,711.701599 
	C649.990173,715.153381 652.635376,715.735352 655.904663,716.632141 
z"/>
<path fill="#000000" opacity="1.000000" stroke="none" 
	d="
M709.974609,265.033203 
	C710.522461,260.410858 706.233154,257.464691 705.764404,253.001785 
	C705.624146,251.666397 703.167114,248.634232 700.115479,249.281921 
	C694.438416,250.486832 690.512756,248.022491 687.307312,243.631088 
	C686.803406,242.940643 685.639832,242.731613 684.438721,242.268646 
	C684.062561,239.468979 684.028992,236.700653 684.353088,233.400650 
	C687.729980,232.895325 688.704895,230.187347 690.419312,228.521332 
	C694.654602,224.405609 702.145752,223.461761 705.279907,227.547821 
	C707.674500,230.669647 709.337402,234.786285 709.992859,238.684540 
	C710.628662,242.465576 712.388794,242.778610 715.350708,242.718582 
	C720.346436,242.617294 726.157471,240.992340 727.551331,248.597443 
	C727.656006,249.168823 728.921753,249.485825 728.734253,250.869385 
	C723.336670,252.084686 720.121399,256.564728 716.030212,259.969177 
	C714.024170,261.638519 713.574951,265.327881 709.974609,265.033203 
z"/>
<path fill="#000000" opacity="1.000000" stroke="none" 
	d="
M579.698853,190.239349 
	C585.515625,195.257446 591.757446,196.896103 598.931885,194.939148 
	C602.106445,194.073227 605.583923,197.510880 606.969360,202.635223 
	C607.987732,206.402130 604.885437,206.615463 602.658203,207.357086 
	C582.747986,213.986710 561.199646,200.005142 561.129272,179.938507 
	C561.094116,169.902435 565.094238,162.362564 574.902100,156.772369 
	C587.553711,149.561295 597.944641,152.356094 608.477783,159.610733 
	C616.642334,165.234039 620.197021,180.024567 616.202148,189.077606 
	C615.084839,191.609756 613.304749,191.565842 611.310242,191.051407 
	C607.610413,190.097092 603.921204,189.067520 600.301453,187.849472 
	C598.015808,187.080353 597.021606,187.839554 596.942139,190.041458 
	C596.807922,193.755798 594.293579,195.479279 591.441284,193.332504 
	C589.564758,191.920120 587.831177,191.155457 585.579346,191.251282 
	C583.507080,191.339493 582.067627,190.526810 581.548767,188.361435 
	C581.308777,187.359879 580.961182,186.310242 581.930969,185.624573 
	C583.938477,184.205170 584.661926,186.410553 586.010437,187.068771 
	C588.612427,188.338776 591.500122,187.759399 594.595642,186.436783 
	C588.784546,184.797729 582.973511,183.158676 576.723083,181.395691 
	C576.353699,185.053299 577.599243,187.608597 579.698853,190.239349 
M594.235229,176.070709 
	C597.216675,176.549774 599.969055,178.251633 603.163025,178.111237 
	C602.599487,170.188095 598.089111,165.298035 590.987000,164.565536 
	C585.780518,164.028580 581.094849,167.058197 579.659668,172.280029 
	C584.250061,173.480118 588.848389,174.682266 594.235229,176.070709 
M576.236084,159.799744 
	C575.119873,161.119019 573.260498,161.869614 572.969849,163.973251 
	C574.728027,164.496353 576.326538,164.067093 577.832886,163.514297 
	C578.778748,163.167175 579.384094,162.222580 579.299622,161.140472 
	C579.180115,159.608887 578.117310,159.338196 576.236084,159.799744 
z"/>
<path fill="#000000" opacity="1.000000" stroke="none" 
	d="
M629.312195,225.040741 
	C624.433533,222.679947 620.062317,220.208267 617.193420,215.908371 
	C613.065430,209.721191 613.210266,203.847977 617.402405,197.769302 
	C621.048157,192.482880 627.318542,190.350815 634.767029,192.083954 
	C639.006470,193.070404 642.844482,195.121658 646.690430,197.117081 
	C649.154419,198.395477 651.699036,199.518478 654.396851,200.801178 
	C656.483032,196.851837 656.338928,193.671082 653.564575,190.821060 
	C649.276550,186.416061 643.960693,184.291275 637.860962,184.370285 
	C634.531494,184.413422 632.288147,183.786591 632.716553,179.736038 
	C633.087830,176.225967 631.944946,171.595612 637.623047,171.752625 
	C649.385010,172.077927 659.873718,175.971375 667.655212,185.056442 
	C673.301331,191.648438 673.412048,199.565430 669.894348,207.148758 
	C665.766907,216.046707 660.858948,224.579514 656.476868,233.364166 
	C654.874817,236.575821 652.889771,236.866837 650.083801,235.211258 
	C648.797058,234.452072 647.468811,233.760391 646.139709,233.076355 
	C643.212891,231.569977 640.209045,230.121506 643.139465,225.737610 
	C638.111084,226.705627 633.837891,226.852295 629.312195,225.040741 
M643.000366,216.818069 
	C645.208374,216.463531 647.128479,215.570786 648.384827,213.650360 
	C649.539795,211.884949 650.460938,210.033173 647.774292,208.742554 
	C644.361389,207.103104 640.951294,205.450699 637.479492,203.943268 
	C634.925659,202.834396 632.446899,203.191376 630.939209,205.673462 
	C629.397522,208.211502 629.911865,210.817245 631.924866,212.966309 
	C634.685364,215.913269 638.134033,217.245087 643.000366,216.818069 
z"/>
<path fill="#000000" opacity="1.000000" stroke="none" 
	d="
M262.004089,629.979980 
	C254.920807,632.690002 248.823044,637.551086 241.192871,640.095337 
	C234.243546,627.153809 225.951324,615.211365 221.612564,601.276245 
	C216.845764,585.966492 223.373535,570.818970 238.347488,561.848145 
	C251.438660,554.005310 268.147339,556.409973 279.192841,567.260193 
	C287.737488,575.653809 292.004852,586.630188 297.706085,596.709229 
	C303.584259,607.101135 303.195526,607.228455 292.599335,612.942688 
	C282.498169,618.389954 272.488281,624.006409 262.191284,629.785034 
	C261.944305,630.021545 261.985870,629.996155 262.004089,629.979980 
M238.556564,606.854858 
	C240.202667,609.743042 241.925262,612.590881 243.472672,615.531006 
	C244.933334,618.306335 246.635345,618.807617 249.469894,617.193359 
	C255.390945,613.821289 261.532288,610.838196 267.495026,607.536255 
	C272.509735,604.759399 277.399628,601.757202 282.525604,598.748657 
	C279.702271,593.491943 277.503143,588.607849 274.597473,584.188354 
	C271.013947,578.737732 266.054382,575.009705 259.206909,574.264771 
	C245.254807,572.747131 228.196991,586.142151 238.556564,606.854858 
z"/>
<path fill="#000000" opacity="1.000000" stroke="none" 
	d="
M651.318237,695.425293 
	C649.006104,697.531311 645.774231,697.374878 643.979065,700.254761 
	C642.491699,698.249512 642.512268,696.955627 644.034058,695.607849 
	C647.498352,692.539429 650.830383,689.171265 656.143433,691.263367 
	C656.862488,695.217407 652.912720,693.733337 651.318237,695.425293 
z"/>
<path fill="#000000" opacity="1.000000" stroke="none" 
	d="
M776.908325,623.277588 
	C772.624207,629.719666 768.739990,635.969055 761.656616,639.648071 
	C750.739075,645.318420 737.498413,643.447937 728.656067,634.324585 
	C720.490845,625.899963 718.709534,611.944824 724.636108,601.918762 
	C727.972046,596.275208 732.080872,591.303589 737.815857,587.871094 
	C748.210266,581.649902 758.244019,582.885925 767.721619,589.702637 
	C776.885864,596.293945 780.646179,607.479919 777.907898,618.485596 
	C777.629395,619.604919 777.504150,620.762329 777.359253,622.269470 
	C777.297363,622.777893 777.183960,622.918884 776.908325,623.277588 
M737.700439,619.650024 
	C743.990051,627.572021 751.906250,629.733093 758.373962,625.293762 
	C764.271301,621.245850 766.059692,613.428345 762.496765,607.271606 
	C758.732910,600.767700 749.408264,597.617004 743.056702,600.703064 
	C736.850342,603.718567 734.343750,611.783020 737.700439,619.650024 
z"/>
<path fill="#000000" opacity="1.000000" stroke="none" 
	d="
M298.022949,678.670532 
	C293.445312,668.139038 295.121338,658.903503 302.031128,650.362976 
	C309.792206,640.770386 319.572327,636.686462 331.620941,640.035889 
	C341.415527,642.758728 347.185516,649.748596 349.702576,659.500610 
	C354.176300,658.149780 361.604706,661.954895 363.321716,666.417908 
	C364.001251,668.184265 362.891083,669.351318 361.962219,670.421265 
	C349.525818,684.746887 337.038269,699.028137 324.554443,713.312683 
	C323.899384,714.062195 323.170959,714.748474 322.466064,715.453552 
	C320.211700,717.708313 319.167572,722.378540 315.434357,721.636169 
	C311.214172,720.796997 308.543732,716.643799 305.363495,713.765015 
	C303.839600,712.385620 305.507904,711.070862 306.430267,709.956055 
	C310.659882,704.843323 314.907410,699.745483 319.691833,693.988525 
	C309.766449,692.256775 302.494965,687.629456 298.022949,678.670532 
M338.038910,661.866089 
	C333.290314,655.027649 327.433533,652.649719 321.060089,654.972473 
	C315.136322,657.131409 310.783234,664.206970 311.273987,670.878845 
	C311.699371,676.662537 317.455200,681.904907 323.212585,682.313904 
	C332.708771,682.988525 341.515045,672.382690 338.038910,661.866089 
M312.843506,650.226868 
	C313.579132,649.633972 314.084198,648.778137 312.836578,648.492188 
	C309.158356,647.648987 304.067871,653.351562 305.394318,656.814026 
	C306.291656,659.156433 307.932922,658.805542 309.043854,657.109985 
	C310.372803,655.081726 311.281372,652.778015 312.843506,650.226868 
z"/>
<path fill="#000000" opacity="1.000000" stroke="none" 
	d="
M630.941162,738.898682 
	C632.173584,745.781738 626.023621,744.726257 622.974487,746.680542 
	C620.234436,748.436707 617.496216,747.599365 616.177185,743.301392 
	C613.548889,747.522278 610.602173,750.503296 606.948181,752.817871 
	C602.330444,755.743164 600.834656,755.329285 599.197266,750.224487 
	C596.775696,742.675110 596.775818,742.675171 603.725586,738.643738 
	C608.588989,735.822754 610.051636,731.482910 608.686462,724.268738 
	C608.370850,722.600525 606.951050,720.888062 608.812378,718.909912 
	C611.936279,719.811584 611.766907,723.498230 613.896057,725.188232 
	C615.162659,726.193726 616.072388,727.957764 618.051392,727.401001 
	C620.025452,726.845642 620.165405,724.952515 620.386963,723.345703 
	C621.002686,718.879517 620.371704,714.735596 616.909302,711.414917 
	C613.315613,707.968506 610.579834,708.646118 608.970032,713.481567 
	C608.650330,714.441895 608.433716,715.388245 607.202515,716.062500 
	C603.670959,713.941833 603.691895,709.932007 602.519653,706.704956 
	C599.309814,697.868042 599.434143,697.822876 608.418091,694.619751 
	C614.248413,692.540955 614.378296,692.736328 616.462646,698.649048 
	C621.161987,711.980103 626.026611,725.252930 630.941162,738.898682 
M616.230286,732.268799 
	C616.918762,734.751221 616.297729,738.522400 621.018738,737.332458 
	C620.130371,732.836243 619.622986,732.241882 616.230286,732.268799 
z"/>
<path fill="#000000" opacity="1.000000" stroke="none" 
	d="
M371.171204,691.462769 
	C378.742828,689.997375 383.447662,692.466736 386.797913,699.521667 
	C384.568146,700.399597 383.062714,700.710022 380.891418,698.525696 
	C378.842499,696.464478 375.537079,695.565979 372.673737,694.436523 
	C371.218323,693.862427 370.247345,693.431763 371.171204,691.462769 
z"/>
<path fill="#000000" opacity="1.000000" stroke="none" 
	d="
M245.826050,394.687378 
	C246.537354,389.364685 251.066666,388.596436 254.537766,386.762085 
	C255.851959,386.067566 256.914520,387.390900 257.750244,388.522858 
	C264.985535,398.323029 261.190155,419.618439 250.465332,429.261353 
	C241.126190,437.658295 223.780853,437.354492 214.153351,428.625336 
	C200.583847,416.321930 202.158600,393.174591 217.363724,383.046265 
	C223.731033,378.804962 230.965744,378.169861 238.392929,378.805969 
	C241.478317,379.070251 241.679443,381.214233 241.329071,383.499481 
	C239.869812,393.016815 238.336838,402.523010 236.799271,412.028137 
	C236.456177,414.149200 235.909973,416.247314 236.544006,418.390411 
	C245.776169,418.431549 250.282272,407.119904 245.826050,394.687378 
M227.653870,406.242310 
	C227.870819,402.073456 230.128860,398.094543 229.254822,393.733551 
	C222.027756,394.544250 218.371475,398.244934 217.449463,405.284882 
	C216.764694,410.513306 219.701065,415.063904 225.165726,417.055450 
	C227.090591,414.010284 226.489197,410.339172 227.653870,406.242310 
z"/>
<path fill="#000000" opacity="1.000000" stroke="none" 
	d="
M245.320190,406.959839 
	C246.281723,411.707825 241.916626,412.117981 240.153793,414.437439 
	C237.603989,409.974731 237.742126,409.306152 244.064316,396.063385 
	C246.716034,399.489594 244.752243,403.191803 245.320190,406.959839 
z"/>
<path fill="#000000" opacity="1.000000" stroke="none" 
	d="
M778.587524,524.774292 
	C779.871948,523.584290 780.828369,522.537476 781.751099,521.527649 
	C783.472656,522.571838 783.681335,524.634277 782.969299,525.101807 
	C778.807251,527.834656 780.672974,531.908081 780.332214,535.445251 
	C780.100098,537.855042 780.165649,540.525879 776.837524,540.299500 
	C773.784729,540.091797 773.675720,537.615540 773.606812,535.121582 
	C773.490173,530.895752 776.850464,528.375671 778.587524,524.774292 
z"/>
<path fill="#000000" opacity="1.000000" stroke="none" 
	d="
M249.213181,515.145325 
	C248.988251,520.204285 249.949356,525.167358 248.950729,530.092957 
	C244.727325,528.970093 241.643051,518.355652 243.771790,512.774963 
	C245.628922,512.403503 246.349655,514.758850 248.416626,514.664673 
	C248.737839,514.679504 249.052917,514.991943 249.213181,515.145325 
z"/>
<path fill="#000000" opacity="1.000000" stroke="none" 
	d="
M526.307373,162.659119 
	C523.419128,163.602585 521.041321,162.840927 518.578003,162.455429 
	C515.599854,161.989334 514.898560,160.307831 514.725037,157.660538 
	C513.837891,144.125092 516.969788,141.368088 530.654602,143.829498 
	C535.414185,144.685577 539.313110,152.194138 536.523987,155.887726 
	C534.117798,159.074066 531.109741,161.999374 526.307373,162.659119 
z"/>
<path fill="#000000" opacity="1.000000" stroke="none" 
	d="
M719.044922,663.479980 
	C718.684570,672.254333 708.702515,678.482422 701.357483,674.967468 
	C698.493347,673.596863 693.835571,665.498352 694.832703,663.102966 
	C698.215027,654.977051 699.257080,651.570801 707.137085,652.937073 
	C710.863464,653.583191 713.980347,656.516052 716.123901,659.751343 
	C716.965698,661.022034 718.222961,661.808838 719.044922,663.479980 
z"/>
<path fill="#000000" opacity="1.000000" stroke="none" 
	d="
M368.535034,710.016968 
	C373.682373,708.924927 375.490021,714.282471 379.578522,714.963806 
	C380.365723,715.094971 380.148071,716.710754 379.742615,717.647888 
	C379.184509,718.937988 377.881622,719.334534 376.850250,718.954346 
	C372.841400,717.476685 370.052673,714.363464 367.326752,711.240906 
	C367.267731,711.173340 367.872772,710.526062 368.535034,710.016968 
z"/>
<path fill="#000000" opacity="1.000000" stroke="none" 
	d="
M310.337708,271.414185 
	C307.706757,277.926300 298.945282,279.191345 294.406860,274.056061 
	C293.535950,273.070587 292.913147,271.862915 292.025818,270.895386 
	C286.903564,265.310272 286.489319,264.991913 291.167267,259.376068 
	C295.956390,253.626678 303.251770,251.588455 307.828033,260.046509 
	C309.673828,263.457947 313.864105,266.362366 310.337708,271.414185 
z"/>
<path fill="#000000" opacity="1.000000" stroke="none" 
	d="
M274.893890,326.154114 
	C271.680206,325.749207 270.145935,328.387634 268.889862,330.078308 
	C266.621887,333.131134 263.714539,332.956787 261.467499,331.703918 
	C258.067902,329.808380 253.848434,328.553619 252.419754,324.015564 
	C252.034378,322.791443 250.471069,321.938171 249.454590,320.920807 
	C256.258850,309.598663 258.462524,308.118225 265.711578,310.064819 
	C269.498657,311.081757 271.484100,314.597504 274.416565,316.784149 
	C276.532349,318.361816 275.089661,322.118805 275.288513,325.330902 
	C275.286224,325.762878 275.022430,326.021484 274.893890,326.154114 
z"/>
<path fill="#000000" opacity="1.000000" stroke="none" 
	d="
M336.379700,218.890625 
	C338.215363,213.037674 342.950531,210.344559 349.156738,211.176682 
	C346.471100,216.483444 340.229614,220.475601 336.379700,218.890625 
z"/>
<path fill="#000000" opacity="1.000000" stroke="none" 
	d="
M666.674438,704.691040 
	C667.657776,704.972534 668.193359,705.598145 667.944153,706.215515 
	C665.853271,711.394714 660.935425,713.826111 654.323486,712.496704 
	C657.327393,707.795349 662.465149,707.063965 666.674438,704.691040 
z"/>
<path fill="#000000" opacity="1.000000" stroke="none" 
	d="
M597.629150,170.697952 
	C593.318665,173.570221 585.725952,172.758240 584.148193,169.449219 
	C588.844238,167.145599 593.325256,167.113205 597.629150,170.697952 
z"/>
<path fill="#000000" opacity="1.000000" stroke="none" 
	d="
M645.603394,211.808777 
	C642.418152,215.062164 636.887695,215.095551 634.135254,212.368210 
	C632.907593,211.151810 632.511841,209.841568 633.037537,208.346756 
	C633.690735,206.489670 635.241455,206.886246 636.781250,207.023834 
	C640.360596,207.343704 643.224915,208.943710 645.603394,211.808777 
z"/>
<path fill="#000000" opacity="1.000000" stroke="none" 
	d="
M242.214783,607.720337 
	C236.586914,601.086487 235.661652,593.741455 239.173035,586.645996 
	C240.787140,583.384338 244.916092,580.944946 248.433929,579.199158 
	C250.706833,578.071045 252.271744,575.749207 255.329391,575.651367 
	C260.707245,575.479248 265.043762,577.598877 268.596924,581.093933 
	C272.787476,585.215942 276.634186,589.760681 277.469299,595.992432 
	C277.841522,598.769958 277.173981,600.401855 274.088318,601.457092 
	C269.553650,603.007751 265.249237,605.296753 260.968018,607.506348 
	C256.108032,610.014404 251.381744,612.781494 246.176163,615.669739 
	C246.527298,612.194702 242.857697,611.047119 242.214783,607.720337 
z"/>
<path fill="#000000" opacity="1.000000" stroke="none" 
	d="
M753.304443,603.562805 
	C761.057129,607.301453 762.989868,610.230774 761.036926,617.760681 
	C760.114563,621.317444 756.589050,623.620117 752.648193,624.226685 
	C747.574585,625.007568 743.609375,621.919861 739.904968,619.429565 
	C737.421326,617.760010 738.733215,613.801941 738.886963,610.905396 
	C739.189575,605.202393 747.804626,600.744934 753.304443,603.562805 
z"/>
<path fill="#000000" opacity="1.000000" stroke="none" 
	d="
M312.696167,670.834961 
	C313.009613,666.593567 321.353668,656.660645 324.830017,655.966064 
	C328.894897,655.153870 334.454376,659.689819 335.762878,664.886108 
	C337.392792,671.358826 332.921204,677.846985 325.326538,680.029053 
	C321.133575,681.233765 314.229553,676.437439 312.696167,670.834961 
z"/>
<path fill="#000000" opacity="1.000000" stroke="none" 
	d="
M220.889374,402.286133 
	C221.896179,400.174194 223.213104,398.834442 224.860077,397.657684 
	C228.045807,404.766449 226.149384,411.212433 220.780060,411.868927 
	C220.422256,408.790710 220.304321,405.724792 220.889374,402.286133 
z"/>
</svg>